#!OML:ASF F:\VICON\USERDATA\INSTALL\rory3\rory3.ASF
:FULLY-SPECIFIED
:DEGREES
31
root 0.0898139 18.0994 -19.2288 -2.57532 -2.363 -6.05657
lowerback 11.6536 0.573238 4.58595
upperback -0.14468 1.56283 2.56776
thorax -6.65729 0.655124 -0.144173
lowerneck -16.576 -3.22347 -2.06228
upperneck 21.559 -3.81818 -0.512486
head 9.58688 -2.00444 -0.332474
rclavicle 2.12513e-014 -1.27222e-014
rhumerus -26.304 -11.7737 -81.8543
rradius 29.0533
rwrist 0.3157
rhand -19.617 22.651
rfingers 7.12502
rthumb 6.70951 -7.22272
lclavicle 2.12513e-014 -1.27222e-014
lhumerus -31.983 2.96125 83.2531
lradius 23.6678
lwrist 5.02347
lhand -27.4751 18.1445
lfingers 7.12502
lthumb -0.878926 48.1224
rfemur -4.77549 3.95559 32.9122
rtibia 27.769
rfoot -17.4023 -4.90714
rtoes 9.66114
lfemur -25.1604 2.65887 -12.9878
ltibia 55.6863
lfoot -8.1635 1.74826
ltoes -5.92267
32
root 0.0875172 18.0857 -19.072 -2.50889 -2.51361 -6.1839
lowerback 11.6159 0.72581 4.88483
upperback 0.164114 1.77833 2.44085
thorax -6.2868 0.759563 -0.480137
lowerneck -17.844 -3.28498 -1.84059
upperneck 21.8624 -3.94982 -0.455172
head 9.92728 -2.03518 -0.393892
rclavicle 9.96408e-015 2.76311e-014
rhumerus -25.1304 -11.7067 -82.2151
rradius 29.3298
rwrist 0.280296
rhand -19.737 22.7449
rfingers 7.12502
rthumb 6.59374 -7.13242
lclavicle 9.96408e-015 2.76311e-014
lhumerus -31.4373 3.09471 83.2502
lradius 23.5053
lwrist 4.73962
lhand -27.4947 19.1952
lfingers 7.12502
lthumb -0.897857 49.1731
rfemur -4.21535 4.37097 33.1665
rtibia 27.7599
rfoot -17.7236 -5.34881
rtoes 9.74415
lfemur -25.7431 2.56916 -12.8242
ltibia 53.8511
lfoot -8.37883 1.94603
ltoes -3.85822
33
root 0.0899402 18.0665 -18.9102 -2.41768 -2.58238 -6.12116
lowerback 11.6259 0.54597 4.54677
upperback -0.612505 1.55501 2.72323
thorax -7.14784 0.64192 0.0439076
lowerneck -14.8048 -2.93883 -2.37924
upperneck 21.0924 -3.39508 -0.480152
head 9.10024 -1.83402 -0.179501
rclavicle 7.62215e-015 2.36554e-014
rhumerus -26.2814 -9.54204 -82.1156
rradius 29.9393
rwrist -0.324705
rhand -20.217 22.2245
rfingers 7.12502
rthumb 6.13035 -7.66683
lclavicle 7.62215e-015 2.36554e-014
lhumerus -33.7133 4.10628 83.2606
lradius 23.8816
lwrist 4.77016
lhand -27.2709 20.2862
lfingers 7.12502
lthumb -0.681689 50.2649
rfemur -3.6473 4.40132 33.149
rtibia 27.6084
rfoot -18.0176 -5.52352
rtoes 9.29623
lfemur -26.0144 2.53084 -12.9692
ltibia 51.891
lfoot -8.2914 2.87262
ltoes -3.26427
34
root 0.0908093 18.0346 -18.7559 -2.32267 -2.77476 -6.30582
lowerback 11.8336 0.793685 5.01532
upperback -0.36653 1.93613 2.52031
thorax -6.9686 0.812451 -0.502263
lowerneck -16.285 -3.07327 -1.9548
upperneck 21.3939 -3.64297 -0.513864
head 9.47103 -1.91496 -0.320591
rclavicle -2.89729e-014 -4.77083e-014
rhumerus -25.3096 -9.74931 -82.3783
rradius 30.3635
rwrist -0.538904
rhand -20.5717 22.1432
rfingers 7.12502
rthumb 5.78783 -7.7578
lclavicle -2.89729e-014 -4.77083e-014
lhumerus -33.0424 3.65136 83.3631
lradius 23.6924
lwrist 5.12524
lhand -27.0923 20.2605
lfingers 7.12502
lthumb -0.509218 50.2396
rfemur -3.09924 4.44701 33.3917
rtibia 27.462
rfoot -18.2952 -5.51006
rtoes 8.45681
lfemur -26.3759 2.46476 -12.7829
ltibia 49.7801
lfoot -7.94763 4.46067
ltoes -3.51318
